<?xml version="1.0" standalone="no"?>
<!DOCTYPE svg PUBLIC "-//W3C//DTD SVG 20010904//EN"
 "http://www.w3.org/TR/2001/REC-SVG-20010904/DTD/svg10.dtd">
<svg version="1.0" xmlns="http://www.w3.org/2000/svg"
 width="400.000000pt" height="400.000000pt" viewBox="0 0 400.000000 400.000000"
 preserveAspectRatio="xMidYMid meet">
<metadata>
Created by potrace 1.14, written by Peter Selinger 2001-2017
</metadata>
<g transform="translate(0.000000,400.000000) scale(0.100000,-0.100000)"
fill="#000000" stroke="none">
<path d="M0 2000 l0 -2000 2000 0 2000 0 0 2000 0 2000 -2000 0 -2000 0 0
-2000z m1975 1431 c62 -12 70 -14 146 -50 25 -11 49 -21 53 -21 4 0 14 -6 21
-12 8 -7 30 -24 50 -38 66 -46 165 -153 165 -179 0 -5 3 -11 8 -13 7 -3 30
-48 55 -108 35 -84 42 -128 42 -250 -1 -111 -4 -134 -28 -199 -15 -41 -27 -76
-27 -78 0 -2 8 -3 18 -3 10 0 23 -5 30 -12 7 -7 48 -13 105 -14 52 -1 102 -6
112 -11 12 -7 26 -7 44 2 65 32 153 46 165 26 3 -4 23 -11 45 -15 50 -8 134
-82 161 -142 15 -32 20 -65 20 -126 0 -78 -2 -87 -35 -140 -24 -38 -53 -68
-88 -90 -50 -32 -56 -33 -155 -33 -57 0 -106 4 -110 10 -10 14 -67 45 -84 45
-7 0 -47 -27 -88 -60 -41 -33 -103 -82 -137 -110 -35 -27 -65 -50 -68 -50 -3
0 -32 -21 -64 -47 -32 -27 -79 -64 -105 -83 -26 -19 -52 -40 -59 -46 -7 -5
-46 -36 -87 -68 -41 -32 -117 -90 -168 -129 -51 -40 -105 -81 -120 -92 -15
-11 -50 -38 -77 -60 -27 -22 -54 -43 -60 -47 -5 -4 -26 -21 -46 -38 -20 -16
-41 -30 -46 -30 -6 0 -19 -11 -29 -25 -10 -14 -23 -25 -28 -25 -16 0 -46 -32
-46 -49 0 -8 -14 -30 -32 -48 l-32 -33 22 -23 c12 -13 22 -28 22 -35 0 -6 6
-15 14 -19 7 -4 18 -18 25 -31 15 -28 28 -28 59 1 l24 22 21 -27 c12 -15 32
-41 45 -58 l24 -30 -33 -28 c-35 -29 -103 -84 -155 -127 -18 -14 -36 -25 -41
-25 -5 0 -31 23 -58 50 l-49 50 31 31 31 32 -51 63 c-52 62 -52 63 -73 43 -12
-11 -34 -19 -56 -19 -20 0 -38 -3 -40 -8 -7 -16 -144 -102 -163 -102 -28 0
-55 34 -55 68 0 33 27 60 155 158 50 37 92 70 95 73 3 4 32 26 65 51 33 25 65
50 71 55 7 6 35 28 64 50 29 22 81 63 116 90 35 28 84 66 110 85 26 19 54 43
63 53 8 9 20 17 25 17 4 0 25 15 45 33 20 17 49 41 65 52 16 11 45 34 66 50
21 17 70 55 110 85 39 30 102 80 140 110 38 30 90 71 116 90 25 19 56 43 68
52 38 31 103 82 137 108 18 14 50 39 70 55 21 17 49 38 63 48 24 16 26 24 24
83 -2 69 -2 69 -64 104 -40 22 -42 22 -78 5 -22 -10 -63 -18 -104 -19 -61 -1
-73 -5 -127 -41 -64 -43 -127 -75 -203 -103 -69 -25 -317 -24 -387 1 -70 25
-152 65 -200 99 -73 50 -177 172 -212 248 -35 75 -44 100 -54 145 -15 65 -23
263 -11 278 5 7 13 33 16 59 4 26 11 50 15 53 5 2 12 20 15 39 4 19 10 36 14
38 4 2 16 19 26 38 22 39 69 102 104 138 76 79 242 167 335 178 32 4 60 11 63
16 7 11 135 5 219 -11z"/>
<path d="M1731 3208 c-34 -9 -108 -56 -186 -117 -22 -17 -48 -37 -57 -44 -74
-52 -87 -63 -88 -69 0 -4 20 -32 45 -62 25 -31 45 -59 45 -62 0 -4 12 -21 28
-39 27 -33 37 -46 82 -111 22 -32 106 -143 128 -169 4 -5 17 -25 27 -42 11
-18 23 -33 28 -33 8 0 93 56 107 70 11 11 86 66 114 84 46 29 114 102 129 138
45 109 -49 258 -163 258 l-40 0 6 39 c10 65 -33 137 -96 159 -38 14 -62 14
-109 0z m68 -182 c18 -39 5 -65 -61 -115 l-53 -40 -20 23 c-41 47 -55 66 -54
74 0 4 24 26 52 49 42 34 59 42 87 40 28 -2 38 -8 49 -31z m133 -147 c13 -5
31 -23 40 -39 15 -27 15 -32 1 -60 -8 -17 -27 -38 -41 -48 -15 -9 -36 -25 -46
-34 -45 -41 -66 -31 -118 53 -15 25 -15 28 0 43 31 29 76 63 107 79 37 20 30
19 57 6z"/>
<path d="M2085 2445 c-46 -47 -47 -81 -1 -129 34 -37 62 -44 114 -30 20 6 23
11 17 43 -3 23 0 46 10 65 21 40 19 49 -14 69 -47 28 -85 22 -126 -18z"/>
<path d="M2406 2394 c-21 -36 -48 -71 -58 -79 -33 -22 -12 -38 41 -30 76 11
101 29 101 72 0 20 7 44 15 53 18 20 7 33 -35 43 -22 5 -29 -1 -64 -59z"/>
<path d="M2588 2423 c-11 -3 -18 -14 -18 -29 0 -14 -7 -35 -15 -48 -20 -30
-11 -52 25 -65 34 -11 46 0 61 57 2 4 18 22 36 40 l34 32 -26 10 c-27 10 -66
11 -97 3z"/>
<path d="M2520 2376 c0 -9 5 -16 10 -16 6 0 10 4 10 9 0 6 -4 13 -10 16 -5 3
-10 -1 -10 -9z"/>
<path d="M2240 2354 c0 -8 5 -12 10 -9 6 4 8 11 5 16 -9 14 -15 11 -15 -7z"/>
<path d="M2838 2300 c-10 -23 -29 -47 -47 -58 -17 -9 -31 -22 -31 -28 0 -19
35 -44 62 -44 23 0 25 -3 24 -41 -1 -53 23 -73 78 -66 55 8 100 54 99 102 -1
45 -18 65 -54 65 -27 0 -29 3 -29 38 0 44 -23 72 -61 72 -19 0 -28 -9 -41 -40z"/>
<path d="M2787 2304 c-4 -4 -7 -14 -7 -23 0 -11 3 -12 11 -4 6 6 10 16 7 23
-2 6 -7 8 -11 4z"/>
</g>
</svg>
