<?xml version="1.0" standalone="no"?>
<!DOCTYPE svg PUBLIC "-//W3C//DTD SVG 20010904//EN"
 "http://www.w3.org/TR/2001/REC-SVG-20010904/DTD/svg10.dtd">
<svg version="1.0" xmlns="http://www.w3.org/2000/svg"
 width="256.000000pt" height="256.000000pt" viewBox="0 0 256.000000 256.000000"
 preserveAspectRatio="xMidYMid meet">

<g transform="translate(0.000000,256.000000) scale(0.100000,-0.100000)"
fill="#000000" stroke="none">
<path d="M790 1845 c13 -14 26 -25 28 -25 3 0 -5 11 -18 25 -13 14 -26 25 -28
25 -3 0 5 -11 18 -25z"/>
<path d="M950 1706 c0 -2 8 -10 18 -17 15 -13 16 -12 3 4 -13 16 -21 21 -21
13z"/>
<path d="M1072 1594 c10 -10 20 -16 22 -13 3 3 -5 11 -17 18 -21 13 -21 12 -5
-5z"/>
<path d="M1220 1466 c0 -2 8 -10 18 -17 15 -13 16 -12 3 4 -13 16 -21 21 -21
13z"/>
<path d="M1362 1334 c10 -10 20 -16 22 -13 3 3 -5 11 -17 18 -21 13 -21 12 -5
-5z"/>
<path d="M1480 1232 c0 -4 10 -13 23 -21 22 -14 22 -14 3 8 -20 22 -26 25 -26
13z"/>
<path d="M1530 1191 c0 -10 29 -36 34 -30 1 2 -6 12 -16 22 -10 9 -18 13 -18
8z"/>
<path d="M1608 1157 c-7 -8 -20 -12 -28 -10 -12 4 -13 3 -1 -5 19 -14 15 -20
-66 -109 -59 -65 -78 -80 -103 -81 -37 -1 -170 -76 -170 -95 0 -6 58 29 85 51
6 4 25 14 44 22 l34 14 116 -122 c64 -66 169 -176 233 -244 64 -68 131 -129
148 -137 17 -7 57 -37 88 -66 54 -50 84 -100 122 -202 15 -40 86 -107 106 -99
8 3 14 1 14 -3 0 -5 11 -8 24 -7 13 0 22 4 19 9 -4 7 12 11 30 8 5 -1 11 8 14
20 3 11 9 17 12 12 3 -5 22 7 41 26 19 19 26 29 15 21 -15 -10 -17 -11 -8 -1
6 7 21 18 34 25 12 6 20 14 18 18 -2 4 6 15 19 23 12 9 20 21 16 26 -3 5 0 8
8 7 7 -2 12 3 11 10 -2 6 2 12 8 12 5 0 8 4 4 9 -3 5 -1 12 4 15 24 15 -9 152
-35 142 -8 -3 -11 0 -8 8 3 7 -24 39 -58 72 -63 60 -91 83 -293 238 -60 47
-191 157 -290 245 -99 89 -183 161 -187 161 -4 0 -13 -6 -20 -13z m42 -17 c13
-11 21 -22 18 -25 -2 -3 -15 6 -28 20 -28 30 -22 33 10 5z m75 -72 l40 -42
-37 30 c-30 24 -55 54 -45 54 2 0 21 -19 42 -42z m215 -195 c0 -3 -30 22 -67
54 -82 71 -103 91 -103 99 0 3 38 -29 85 -71 47 -43 85 -80 85 -82z m-248 0
c26 -24 23 -69 -6 -89 -36 -23 -80 -1 -84 42 -5 55 49 84 90 47z m387 -116 c1
-5 -28 16 -63 45 -36 29 -65 56 -65 61 -1 4 28 -16 63 -45 35 -29 65 -57 65
-61z m51 -33 c0 -2 -9 0 -20 6 -11 6 -20 13 -20 16 0 2 9 0 20 -6 11 -6 20
-13 20 -16z m80 -64 c0 -5 -2 -10 -4 -10 -3 0 -8 5 -11 10 -3 6 -1 10 4 10 6
0 11 -4 11 -10z m-274 -8 c43 -29 30 -94 -20 -100 -33 -4 -66 22 -66 51 0 42
53 72 86 49z m394 -87 c28 -25 47 -45 43 -45 -10 1 -110 90 -101 90 4 0 30
-20 58 -45z m-102 -169 c21 -13 30 -49 19 -74 -21 -45 -90 -36 -103 13 -8 33
1 54 28 64 26 10 37 9 56 -3z"/>
</g>
</svg>
